<mxfile host="Electron" agent="Mozilla/5.0 (Macintosh; Intel Mac OS X 10_15_7) AppleWebKit/537.36 (KHTML, like Gecko) draw.io/28.1.2 Chrome/138.0.7204.243 Electron/37.4.0 Safari/537.36" version="28.1.2">
  <diagram name="Page-1" id="VgDymT5_iToIgLZdXw6S">
    <mxGraphModel dx="976" dy="755" grid="1" gridSize="10" guides="1" tooltips="1" connect="1" arrows="1" fold="1" page="1" pageScale="1" pageWidth="827" pageHeight="1169" background="#ffffff" math="0" shadow="0">
      <root>
        <mxCell id="0" />
        <mxCell id="1" parent="0" />
        <mxCell id="_giiExtIUJitpKC06nbd-52" value="" style="rounded=0;whiteSpace=wrap;html=1;gradientColor=#EBFFEC;" parent="1" vertex="1">
          <mxGeometry x="370" y="200" width="560" height="130" as="geometry" />
        </mxCell>
        <mxCell id="_giiExtIUJitpKC06nbd-45" value="" style="rounded=0;whiteSpace=wrap;html=1;gradientColor=#DAEBFF;" parent="1" vertex="1">
          <mxGeometry x="369" width="561" height="190" as="geometry" />
        </mxCell>
        <mxCell id="_giiExtIUJitpKC06nbd-44" value="" style="rounded=0;whiteSpace=wrap;html=1;labelBackgroundColor=none;textShadow=0;gradientColor=#FFF9D2;" parent="1" vertex="1">
          <mxGeometry x="89" width="261" height="330" as="geometry" />
        </mxCell>
        <mxCell id="_giiExtIUJitpKC06nbd-20" style="edgeStyle=orthogonalEdgeStyle;rounded=0;orthogonalLoop=1;jettySize=auto;html=1;" parent="1" source="_giiExtIUJitpKC06nbd-1" target="_giiExtIUJitpKC06nbd-4" edge="1">
          <mxGeometry relative="1" as="geometry" />
        </mxCell>
        <mxCell id="_giiExtIUJitpKC06nbd-50" style="edgeStyle=orthogonalEdgeStyle;rounded=0;orthogonalLoop=1;jettySize=auto;html=1;" parent="1" source="_giiExtIUJitpKC06nbd-1" target="_giiExtIUJitpKC06nbd-47" edge="1">
          <mxGeometry relative="1" as="geometry">
            <Array as="points">
              <mxPoint x="150" y="254" />
            </Array>
          </mxGeometry>
        </mxCell>
        <mxCell id="_giiExtIUJitpKC06nbd-1" value="API&lt;span style=&quot;background-color: transparent; color: light-dark(rgb(35, 47, 62), rgb(189, 199, 212));&quot;&gt;&amp;nbsp;Gateway&lt;/span&gt;" style="sketch=0;points=[[0,0,0],[0.25,0,0],[0.5,0,0],[0.75,0,0],[1,0,0],[0,1,0],[0.25,1,0],[0.5,1,0],[0.75,1,0],[1,1,0],[0,0.25,0],[0,0.5,0],[0,0.75,0],[1,0.25,0],[1,0.5,0],[1,0.75,0]];outlineConnect=0;fontColor=#232F3E;fillColor=#8C4FFF;strokeColor=#ffffff;dashed=0;verticalLabelPosition=bottom;verticalAlign=top;align=center;html=1;fontSize=12;fontStyle=0;aspect=fixed;shape=mxgraph.aws4.resourceIcon;resIcon=mxgraph.aws4.api_gateway;" parent="1" vertex="1">
          <mxGeometry x="110" y="60" width="78" height="78" as="geometry" />
        </mxCell>
        <mxCell id="_giiExtIUJitpKC06nbd-38" style="edgeStyle=orthogonalEdgeStyle;rounded=0;orthogonalLoop=1;jettySize=auto;html=1;" parent="1" source="_giiExtIUJitpKC06nbd-4" target="_giiExtIUJitpKC06nbd-8" edge="1">
          <mxGeometry relative="1" as="geometry">
            <Array as="points">
              <mxPoint x="410" y="99" />
            </Array>
          </mxGeometry>
        </mxCell>
        <mxCell id="_giiExtIUJitpKC06nbd-4" value="Config&lt;br&gt;API handler" style="sketch=0;outlineConnect=0;fontColor=#232F3E;gradientColor=none;fillColor=#ED7100;strokeColor=none;dashed=0;verticalLabelPosition=bottom;verticalAlign=top;align=center;html=1;fontSize=12;fontStyle=0;aspect=fixed;pointerEvents=1;shape=mxgraph.aws4.lambda_function;" parent="1" vertex="1">
          <mxGeometry x="250" y="75" width="48" height="48" as="geometry" />
        </mxCell>
        <mxCell id="_giiExtIUJitpKC06nbd-6" value="Config Notification&lt;br&gt;SQS handler" style="sketch=0;outlineConnect=0;fontColor=#232F3E;gradientColor=none;fillColor=#ED7100;strokeColor=none;dashed=0;verticalLabelPosition=bottom;verticalAlign=top;align=center;html=1;fontSize=12;fontStyle=0;aspect=fixed;pointerEvents=1;shape=mxgraph.aws4.lambda_function;" parent="1" vertex="1">
          <mxGeometry x="710" y="230" width="48" height="48" as="geometry" />
        </mxCell>
        <mxCell id="_giiExtIUJitpKC06nbd-23" style="edgeStyle=orthogonalEdgeStyle;rounded=0;orthogonalLoop=1;jettySize=auto;html=1;" parent="1" source="_giiExtIUJitpKC06nbd-7" target="_giiExtIUJitpKC06nbd-22" edge="1">
          <mxGeometry relative="1" as="geometry" />
        </mxCell>
        <mxCell id="_giiExtIUJitpKC06nbd-46" style="edgeStyle=orthogonalEdgeStyle;rounded=0;orthogonalLoop=1;jettySize=auto;html=1;" parent="1" source="_giiExtIUJitpKC06nbd-7" target="_giiExtIUJitpKC06nbd-8" edge="1">
          <mxGeometry relative="1" as="geometry">
            <Array as="points">
              <mxPoint x="734" y="20" />
              <mxPoint x="430" y="20" />
            </Array>
          </mxGeometry>
        </mxCell>
        <mxCell id="_giiExtIUJitpKC06nbd-7" value="Config Table&lt;br&gt;Stream handler" style="sketch=0;outlineConnect=0;fontColor=#232F3E;gradientColor=none;fillColor=#ED7100;strokeColor=none;dashed=0;verticalLabelPosition=bottom;verticalAlign=top;align=center;html=1;fontSize=12;fontStyle=0;aspect=fixed;pointerEvents=1;shape=mxgraph.aws4.lambda_function;" parent="1" vertex="1">
          <mxGeometry x="710" y="75" width="48" height="48" as="geometry" />
        </mxCell>
        <mxCell id="_giiExtIUJitpKC06nbd-43" style="edgeStyle=orthogonalEdgeStyle;rounded=0;orthogonalLoop=1;jettySize=auto;html=1;" parent="1" source="_giiExtIUJitpKC06nbd-8" target="_giiExtIUJitpKC06nbd-13" edge="1">
          <mxGeometry relative="1" as="geometry" />
        </mxCell>
        <mxCell id="_giiExtIUJitpKC06nbd-8" value="DynamoDB&lt;br&gt;Config table" style="sketch=0;points=[[0,0,0],[0.25,0,0],[0.5,0,0],[0.75,0,0],[1,0,0],[0,1,0],[0.25,1,0],[0.5,1,0],[0.75,1,0],[1,1,0],[0,0.25,0],[0,0.5,0],[0,0.75,0],[1,0.25,0],[1,0.5,0],[1,0.75,0]];outlineConnect=0;fontColor=#232F3E;fillColor=#C925D1;strokeColor=#ffffff;dashed=0;verticalLabelPosition=bottom;verticalAlign=top;align=center;html=1;fontSize=12;fontStyle=0;aspect=fixed;shape=mxgraph.aws4.resourceIcon;resIcon=mxgraph.aws4.dynamodb;" parent="1" vertex="1">
          <mxGeometry x="390" y="60" width="78" height="78" as="geometry" />
        </mxCell>
        <mxCell id="_giiExtIUJitpKC06nbd-17" style="edgeStyle=orthogonalEdgeStyle;rounded=0;orthogonalLoop=1;jettySize=auto;html=1;" parent="1" source="_giiExtIUJitpKC06nbd-13" target="_giiExtIUJitpKC06nbd-7" edge="1">
          <mxGeometry relative="1" as="geometry">
            <mxPoint x="670" y="244" as="targetPoint" />
          </mxGeometry>
        </mxCell>
        <mxCell id="_giiExtIUJitpKC06nbd-41" style="edgeStyle=orthogonalEdgeStyle;rounded=0;orthogonalLoop=1;jettySize=auto;html=1;" parent="1" source="_giiExtIUJitpKC06nbd-22" target="_giiExtIUJitpKC06nbd-24" edge="1">
          <mxGeometry relative="1" as="geometry" />
        </mxCell>
        <mxCell id="_giiExtIUJitpKC06nbd-22" value="Config Change&lt;br&gt;SNS Topic" style="sketch=0;outlineConnect=0;fontColor=#232F3E;gradientColor=none;fillColor=#7AA116;strokeColor=none;dashed=0;verticalLabelPosition=bottom;verticalAlign=top;align=center;html=1;fontSize=12;fontStyle=0;aspect=fixed;pointerEvents=1;shape=mxgraph.aws4.topic_2;" parent="1" vertex="1">
          <mxGeometry x="840" y="60" width="53" height="78" as="geometry" />
        </mxCell>
        <mxCell id="_giiExtIUJitpKC06nbd-26" style="edgeStyle=orthogonalEdgeStyle;rounded=0;orthogonalLoop=1;jettySize=auto;html=1;" parent="1" source="_giiExtIUJitpKC06nbd-24" target="_giiExtIUJitpKC06nbd-6" edge="1">
          <mxGeometry relative="1" as="geometry" />
        </mxCell>
        <mxCell id="_giiExtIUJitpKC06nbd-24" value="Notifications&lt;br&gt;SQS Queue" style="sketch=0;points=[[0,0,0],[0.25,0,0],[0.5,0,0],[0.75,0,0],[1,0,0],[0,1,0],[0.25,1,0],[0.5,1,0],[0.75,1,0],[1,1,0],[0,0.25,0],[0,0.5,0],[0,0.75,0],[1,0.25,0],[1,0.5,0],[1,0.75,0]];outlineConnect=0;fontColor=#232F3E;fillColor=#E7157B;strokeColor=#ffffff;dashed=0;verticalLabelPosition=bottom;verticalAlign=top;align=center;html=1;fontSize=12;fontStyle=0;aspect=fixed;shape=mxgraph.aws4.resourceIcon;resIcon=mxgraph.aws4.sqs;" parent="1" vertex="1">
          <mxGeometry x="827.5" y="215" width="78" height="78" as="geometry" />
        </mxCell>
        <mxCell id="_giiExtIUJitpKC06nbd-31" style="edgeStyle=orthogonalEdgeStyle;rounded=0;orthogonalLoop=1;jettySize=auto;html=1;" parent="1" source="_giiExtIUJitpKC06nbd-30" target="_giiExtIUJitpKC06nbd-1" edge="1">
          <mxGeometry relative="1" as="geometry" />
        </mxCell>
        <mxCell id="_giiExtIUJitpKC06nbd-30" value="API client" style="html=1;verticalLabelPosition=bottom;align=center;labelBackgroundColor=#ffffff;verticalAlign=top;strokeWidth=2;strokeColor=#0080F0;shadow=0;dashed=0;shape=mxgraph.ios7.icons.user;" parent="1" vertex="1">
          <mxGeometry x="20" y="84" width="30" height="30" as="geometry" />
        </mxCell>
        <mxCell id="_giiExtIUJitpKC06nbd-13" value="DynamoDB&lt;br&gt;Config stream" style="sketch=0;outlineConnect=0;fontColor=#232F3E;gradientColor=none;fillColor=#C925D1;strokeColor=none;dashed=0;verticalLabelPosition=bottom;verticalAlign=top;align=center;html=1;fontSize=12;fontStyle=0;aspect=fixed;pointerEvents=1;shape=mxgraph.aws4.dynamodb_stream;" parent="1" vertex="1">
          <mxGeometry x="550" y="60" width="78" height="78" as="geometry" />
        </mxCell>
        <mxCell id="_giiExtIUJitpKC06nbd-51" style="edgeStyle=orthogonalEdgeStyle;rounded=0;orthogonalLoop=1;jettySize=auto;html=1;" parent="1" source="_giiExtIUJitpKC06nbd-47" target="_giiExtIUJitpKC06nbd-8" edge="1">
          <mxGeometry relative="1" as="geometry">
            <Array as="points">
              <mxPoint x="330" y="254" />
              <mxPoint x="330" y="110" />
            </Array>
          </mxGeometry>
        </mxCell>
        <mxCell id="_giiExtIUJitpKC06nbd-47" value="Config Change&lt;br&gt;API handler" style="sketch=0;outlineConnect=0;fontColor=#232F3E;gradientColor=none;fillColor=#ED7100;strokeColor=none;dashed=0;verticalLabelPosition=bottom;verticalAlign=top;align=center;html=1;fontSize=12;fontStyle=0;aspect=fixed;pointerEvents=1;shape=mxgraph.aws4.lambda_function;" parent="1" vertex="1">
          <mxGeometry x="250" y="230" width="48" height="48" as="geometry" />
        </mxCell>
        <mxCell id="_giiExtIUJitpKC06nbd-53" value="&lt;b&gt;Notifications Stack&lt;/b&gt;" style="text;html=1;align=center;verticalAlign=middle;resizable=0;points=[];autosize=1;strokeColor=none;fillColor=none;" parent="1" vertex="1">
          <mxGeometry x="370" y="300" width="130" height="30" as="geometry" />
        </mxCell>
        <mxCell id="_giiExtIUJitpKC06nbd-54" value="&lt;b&gt;API Stack&lt;/b&gt;" style="text;html=1;align=center;verticalAlign=middle;resizable=0;points=[];autosize=1;strokeColor=none;fillColor=none;" parent="1" vertex="1">
          <mxGeometry x="89" y="300" width="80" height="30" as="geometry" />
        </mxCell>
        <mxCell id="_giiExtIUJitpKC06nbd-55" value="&lt;b&gt;Storage Stack&lt;/b&gt;" style="text;html=1;align=center;verticalAlign=middle;resizable=0;points=[];autosize=1;strokeColor=none;fillColor=none;" parent="1" vertex="1">
          <mxGeometry x="830" width="100" height="30" as="geometry" />
        </mxCell>
      </root>
    </mxGraphModel>
  </diagram>
</mxfile>
